<svg preserveAspectRatio="none" viewBox="0 0 444 986" fill="none" xmlns="http://www.w3.org/2000/svg">
<path d="M7.98926 0C18.1757 173.924 43.1404 277.518 76.3896 341.532C82.5622 353.416 89.0203 363.935 95.7227 373.287C102.478 378.816 109.381 383.642 116.401 387.914C143.781 404.573 173.001 412.866 202.516 421.612C231.966 430.339 261.677 439.511 289.556 457.997C303.463 467.219 316.893 478.743 329.618 493.652C333.542 497.533 337.411 501.687 341.216 506.145C345.14 510.025 349.007 514.18 352.812 518.637C369.965 535.601 386.032 557.794 400.505 587.634C417.45 622.571 432.216 668.007 444 727.847V749.384C431.707 679.514 415.662 628.054 397.005 589.587C392.875 581.072 388.618 573.194 384.246 565.896C385.817 568.893 387.372 571.974 388.908 575.141C411.994 622.739 431.035 689.826 444 786.274V818.297C431.147 705.101 410.673 629.186 385.408 577.095C381.278 568.58 377.021 560.702 372.648 553.403C374.22 556.401 375.775 559.482 377.312 562.649C404.976 619.689 426.834 704.712 439.386 834.711C440.97 841.738 442.508 848.984 444 856.457V877.697C443.468 874.72 442.929 871.776 442.384 868.865C442.949 875.982 443.486 883.222 444 890.589V960.763C443.617 951.903 443.203 943.202 442.755 934.656C439.252 906.175 435.247 880.156 430.787 856.366C432.431 877.064 433.858 898.809 435.057 921.66C437.538 941.855 439.767 963.274 441.725 986H437.783C437.753 985.655 437.725 985.309 437.695 984.965C437.706 985.31 437.716 985.655 437.727 986H433.807C433.111 963.809 432.227 942.546 431.159 922.168C418.235 817.077 398.46 745.511 374.309 695.716C370.177 687.198 365.918 679.317 361.544 672.016C363.117 675.016 364.674 678.099 366.212 681.27C396.129 742.954 419.254 837.368 431.163 986H427.23C415.335 837.958 392.308 744.245 362.712 683.223C354.931 667.179 346.695 653.399 338.091 641.486C333.021 637.305 327.874 633.518 322.664 630.063C295.3 611.919 266.085 602.874 236.61 594.14C207.199 585.424 177.494 577.01 149.631 560.057C133.749 550.393 118.485 537.967 104.178 521.165C100.249 517.289 96.3804 513.135 92.5801 508.672C88.6515 504.797 84.7842 500.643 80.9844 496.181C65.8407 481.244 51.6045 462.169 38.6455 437.22C23.9492 408.925 10.8944 373.071 0 327.117V309.158C11.5418 363.041 25.8265 403.843 42.0967 435.168C44.8814 440.529 47.7259 445.613 50.623 450.437C50.4969 450.195 50.3681 449.954 50.2422 449.712C29.8855 410.519 12.6755 356.824 0 281.871V256.616C12.8852 344.195 31.4312 404.8 53.6934 447.661C56.4758 453.018 59.3183 458.097 62.2129 462.917C62.0888 462.68 61.9627 462.443 61.8389 462.204C34.346 409.273 12.5938 329.887 0 207.411V163.951C0.72078 173.046 1.48534 181.927 2.29492 190.599C5.56613 204.762 9.03782 217.97 12.6943 230.296C11.757 221.718 10.8679 212.921 10.0244 203.901C6.43344 188.328 3.08541 171.618 0 153.678V128.848C2.26591 143.957 4.70034 158.255 7.29688 171.789C5.81999 152.536 4.54251 132.344 3.47461 111.163C2.25149 101.439 1.09303 91.4146 0 81.0791V38.9971C0.364809 43.4264 0.739623 47.8041 1.12598 52.1309C0.63839 35.7962 0.263153 18.9395 0 1.54297V0H3.89062C4.47543 39.6257 5.64907 76.4374 7.37207 110.648C20.2775 213.161 40.2844 281.853 64.793 329.039C67.5777 334.4 70.4222 339.484 73.3193 344.308C73.1931 344.066 73.0644 343.826 72.9385 343.583C39.2992 278.818 14.2534 174.449 4.06543 0H7.98926ZM424.799 793.632C425.847 802.911 426.845 812.438 427.789 822.219C432.074 841.225 436.026 861.834 439.616 884.198C438.388 867.304 437.02 851.089 435.52 835.525C432.145 820.581 428.566 806.642 424.799 793.632ZM373.146 684.517C374.717 687.514 376.272 690.596 377.809 693.763C398.148 735.698 415.347 792.76 428.019 871.7C426.79 854.805 425.423 838.59 423.923 823.025C413.157 775.347 400.309 737.906 385.905 708.208C381.776 699.693 377.518 691.815 373.146 684.517ZM361.048 540.902C362.621 543.903 364.177 546.986 365.715 550.156C389.623 599.451 409.196 669.648 422.172 771.714C425.764 782.595 429.207 794.192 432.491 806.558C419.644 692.945 399.132 616.809 373.812 564.603C369.68 556.085 365.422 548.203 361.048 540.902ZM384.743 697.01C386.314 700.007 387.869 703.087 389.405 706.254C401.01 730.18 411.591 759.031 420.894 794.06C420.075 786.818 419.225 779.728 418.345 772.787C411.852 753.168 404.881 735.917 397.501 720.7C393.371 712.186 389.115 704.308 384.743 697.01ZM21.3027 268.283C34.2326 363.085 53.5132 427.646 76.8867 472.646C83.0592 484.53 89.5174 495.049 96.2197 504.4C102.975 509.929 109.878 514.755 116.898 519.027C144.278 535.687 173.498 543.981 203.013 552.727C232.463 561.454 262.174 570.625 290.053 589.11C303.96 598.332 317.39 609.856 330.115 624.766C334.04 628.647 337.908 632.8 341.713 637.258C345.637 641.139 349.504 645.293 353.309 649.75C370.462 666.714 386.529 688.907 401.002 718.747C406.128 729.316 411.053 740.846 415.758 753.444C402.877 661.911 384.391 597.833 362.215 552.109C354.434 536.066 346.199 522.286 337.595 510.373C332.525 506.192 327.378 502.405 322.168 498.95C294.804 480.806 265.588 471.761 236.113 463.026C206.702 454.311 176.997 445.897 149.134 428.943C133.252 419.28 117.988 406.854 103.681 390.052C99.7515 386.176 95.8834 382.022 92.083 377.559C88.1543 373.683 84.2872 369.529 80.4873 365.066C65.3438 350.129 51.1073 331.056 38.1484 306.106C32.2588 294.767 26.6321 282.214 21.3027 268.283ZM139.773 548.608C143.703 551.439 147.676 554.063 151.688 556.504C179.068 573.163 208.288 581.457 237.803 590.203C264.452 598.1 291.316 606.362 316.842 621.56C314.926 620.183 313.001 618.854 311.067 617.571C283.704 599.427 254.49 590.382 225.015 581.647C196.214 573.113 167.132 564.866 139.773 548.608ZM128.169 536.11C132.101 538.943 136.076 541.569 140.091 544.012C167.47 560.671 196.691 568.965 226.205 577.711C252.854 585.608 279.716 593.868 305.241 609.064C303.327 607.688 301.403 606.36 299.471 605.078C272.107 586.934 242.892 577.89 213.417 569.155C184.614 560.62 155.53 552.371 128.169 536.11ZM116.58 523.623C120.51 526.454 124.483 529.078 128.495 531.52C155.874 548.179 185.094 556.473 214.608 565.219C241.259 573.116 268.124 581.377 293.65 596.575C291.734 595.198 289.808 593.869 287.874 592.586C260.511 574.442 231.296 565.397 201.821 556.663C173.021 548.129 143.939 539.881 116.58 523.623ZM139.276 417.494C143.206 420.325 147.179 422.949 151.191 425.391C178.571 442.05 207.791 450.344 237.306 459.09C263.955 466.987 290.819 475.248 316.345 490.445C314.429 489.068 312.504 487.74 310.57 486.458C283.207 468.314 253.993 459.268 224.518 450.533C195.717 441.999 166.635 433.752 139.276 417.494ZM127.672 404.997C131.604 407.83 135.58 410.456 139.595 412.898C166.974 429.558 196.195 437.851 225.709 446.597C252.357 454.493 279.219 462.754 304.744 477.95C302.83 476.574 300.906 475.246 298.974 473.965C271.61 455.82 242.395 446.775 212.92 438.041C184.117 429.506 155.032 421.258 127.672 404.997ZM5.06348 217.917C17.7735 333.762 38.9277 409.398 65.29 460.153C68.0748 465.515 70.9192 470.598 73.8164 475.422C73.6901 475.18 73.5616 474.939 73.4355 474.696C48.3458 426.391 28.0345 356.055 15.1035 251.043C11.6064 240.7 8.25649 229.676 5.06348 217.917ZM116.083 392.509C120.013 395.34 123.986 397.965 127.998 400.406C155.377 417.066 184.597 425.36 214.111 434.105C240.762 442.003 267.627 450.264 293.153 465.462C291.237 464.085 289.311 462.755 287.377 461.473C260.013 443.328 230.799 434.283 201.324 425.549C172.524 417.014 143.442 408.767 116.083 392.509ZM10.2119 157.934C11.3128 173.583 12.5404 188.627 13.8906 203.09C24.9147 250.821 38.2142 287.702 53.1963 316.547C55.9788 321.904 58.8211 326.983 61.7158 331.804C61.5917 331.566 61.4657 331.329 61.3418 331.091C40.5069 290.978 22.9664 235.672 10.2119 157.934ZM16.6602 230.407C17.3896 237.056 18.1472 243.572 18.9316 249.959C25.9374 270.62 33.5232 288.505 41.5996 304.055C44.3843 309.416 47.2289 314.499 50.126 319.323C49.9997 319.082 49.8711 318.84 49.7451 318.598C37.4712 294.967 26.3424 266.063 16.6602 230.407Z" fill="#3E1A51"/>
</svg>
