<svg width="48" height="31" viewBox="0 0 48 31" fill="none" xmlns="http://www.w3.org/2000/svg">
<g clip-path="url(#clip0_89_103)">
<path d="M47.7867 4.21769H4.26667V26.6204L43.5435 26.5799L43.52 4.22201L47.7867 4.21769L47.8148 30.8258L43.5482 30.83L43.5479 30.7975L0.004375 30.8427V30.7891H0V0H47.7867V4.21769ZM30.9333 15.3946H38.8267C38.8267 16.9377 38.3637 18.4463 37.4965 19.7294C36.6291 21.0126 35.3963 22.0127 33.9539 22.6034C32.5116 23.1939 30.9246 23.3485 29.3933 23.0473C27.8622 22.7462 26.4557 22.0033 25.3519 20.9119C24.2479 19.8207 23.4963 18.4304 23.1917 16.9169C22.887 15.4033 23.0434 13.8344 23.6407 12.4086C24.2383 10.9829 25.2501 9.76416 26.5481 8.90679C27.8462 8.04943 29.3722 7.59184 30.9333 7.59184V15.3946ZM20.0533 21.0884H7.25333V18.9796H20.0533V21.0884ZM20.0533 16.449H7.25333V14.3401H20.0533V16.449ZM31.7867 7.59184C32.7113 7.59184 33.6267 7.77178 34.4809 8.12151C35.335 8.47125 36.1111 8.98384 36.7648 9.63003C37.4185 10.2762 37.9371 11.0435 38.2908 11.8878C38.6447 12.7321 38.8267 13.6371 38.8267 14.551H31.7867V7.59184ZM20.0533 11.8095H7.25333V9.70068H20.0533V11.8095Z" fill="#C79FE0"/>
</g>
<defs>
<clipPath id="clip0_89_103">
<rect width="48" height="31" fill="white"/>
</clipPath>
</defs>
</svg>
