<svg width="225" height="147" viewBox="0 0 225 147" fill="none" xmlns="http://www.w3.org/2000/svg">
<path d="M224 20H20V126.232L204.11 126.04L204 20.0205L224 20L224.132 146.174L204.132 146.194L204.131 146.04L0.0205078 146.254V146H0V0H224V20ZM145 73H182C182 80.3177 179.83 87.4711 175.765 93.5557C171.699 99.6403 165.92 104.383 159.159 107.184C152.398 109.984 144.959 110.717 137.781 109.289C130.604 107.861 124.011 104.338 118.837 99.1631C113.662 93.9886 110.139 87.3959 108.711 80.2188C107.283 73.0415 108.016 65.6017 110.816 58.8408C113.617 52.08 118.36 46.301 124.444 42.2354C130.529 38.1699 137.682 36 145 36V73ZM94 100H34V90H94V100ZM94 78H34V68H94V78ZM149 36C153.334 36 157.625 36.8533 161.629 38.5117C165.633 40.1701 169.271 42.6008 172.335 45.665C175.399 48.7293 177.83 52.3674 179.488 56.3711C181.147 60.3748 182 64.6664 182 69H149V36ZM94 56H34V46H94V56Z" fill="#D9D9D9"/>
</svg>
