<svg width="346" height="346" viewBox="0 0 346 346" fill="none" xmlns="http://www.w3.org/2000/svg">
<rect x="106.156" y="62.9197" width="16" height="60" transform="rotate(-27.7371 106.156 62.9197)" fill="white"/>
<rect x="197.842" y="237.283" width="16" height="60" transform="rotate(-27.7371 197.842 237.283)" fill="white"/>
<path d="M119.383 110.772C123.021 96.3459 138.378 88.271 152.325 93.4497L187.979 106.688C208.252 114.215 210.053 142.187 190.913 152.252L145.957 175.891C126.817 185.955 104.793 168.617 110.081 147.649L119.383 110.772Z" fill="white"/>
<path d="M226.701 234.089C223.063 248.516 207.707 256.59 193.759 251.412L158.105 238.174C137.832 230.647 136.031 202.674 155.171 192.61L200.127 168.971C219.267 158.906 241.292 176.244 236.003 197.212L226.701 234.089Z" fill="white"/>
<path d="M258.804 258.804C241.742 275.867 220.004 287.486 196.338 292.194C172.672 296.901 148.141 294.485 125.848 285.251C103.555 276.017 84.5014 260.38 71.0956 240.317C57.6899 220.254 50.5347 196.666 50.5347 172.536C50.5347 148.407 57.69 124.819 71.0957 104.756C84.5014 84.6928 103.555 69.0555 125.848 59.8215C148.141 50.5875 172.672 48.1715 196.338 52.8789C220.004 57.5864 241.742 69.2059 258.804 86.2681L241.551 103.522C227.901 89.872 210.51 80.5764 191.577 76.8104C172.645 73.0444 153.02 74.9773 135.186 82.3645C117.352 89.7517 102.108 102.261 91.3838 118.312C80.6592 134.362 74.935 153.233 74.935 172.536C74.935 191.84 80.6592 210.71 91.3838 226.761C102.108 242.811 117.352 255.321 135.186 262.708C153.02 270.095 172.645 272.028 191.577 268.262C210.51 264.496 227.901 255.201 241.551 241.551L258.804 258.804Z" fill="white"/>
</svg>
