<svg width="301" height="301" viewBox="0 0 301 301" fill="none" xmlns="http://www.w3.org/2000/svg">
<path d="M93.6206 89.211C94.8604 75.8505 108.645 67.4766 121.073 72.5339L166.565 91.0452C181.787 97.2394 183.456 118.131 169.41 126.663L119.381 157.056C105.335 165.588 87.5641 154.478 89.0826 138.114L93.6206 89.211Z" fill="#EBE9FF"/>
<path d="M206.195 209.469C204.8 222.589 191.306 230.786 179.019 225.978L132.122 207.625C116.702 201.591 114.875 180.504 129.026 171.908L181.251 140.182C195.402 131.585 213.274 142.925 211.522 159.391L206.195 209.469Z" fill="#EBE9FF"/>
<rect x="80.9448" y="50.4896" width="16" height="43" transform="rotate(-31.2781 80.9448 50.4896)" fill="#EBE9FF"/>
<path d="M241.752 210.866C229.436 229.477 211.728 243.88 190.998 252.147C170.268 260.414 147.508 262.149 125.764 257.121C104.021 252.092 84.3331 240.54 69.3378 224.011C54.3425 207.483 44.7557 186.766 41.8613 164.638C38.967 142.509 42.9033 120.024 53.1431 100.195C63.3829 80.3653 79.4373 64.1381 99.1559 53.6866C118.875 43.2351 141.316 39.0582 163.474 41.7155C185.633 44.3727 206.45 53.7372 223.139 68.5547L212.9 80.0865C198.562 67.3558 180.676 59.3102 161.638 57.0271C142.6 54.7441 123.32 58.3327 106.378 67.3123C89.4364 76.2919 75.643 90.2337 66.8454 107.27C58.0477 124.307 54.6657 143.625 57.1524 162.638C59.6391 181.65 67.8758 199.448 80.7593 213.649C93.6427 227.85 110.558 237.776 129.239 242.096C147.92 246.416 167.475 244.925 185.285 237.823C203.096 230.72 218.31 218.345 228.892 202.355L241.752 210.866Z" fill="#EBE9FF"/>
<rect x="180.63" y="214.584" width="16" height="49" transform="rotate(-31.2781 180.63 214.584)" fill="#EBE9FF"/>
</svg>
