<svg width="441" height="1493" viewBox="0 0 441 1493" fill="none" xmlns="http://www.w3.org/2000/svg">
<path d="M3.7373 0C3.73731 96.1116 6.51375 177.078 11.5996 245.435C10.8277 213.197 10.4297 178.934 10.4297 142.508L11.9062 142.335C10.6526 102.507 10.001 59.4227 10.001 12.7949L11.8682 12.5762L13.7373 12.3584C13.7373 108.466 16.5141 189.43 21.5996 257.785C20.8278 225.55 20.4287 191.29 20.4287 154.867L21.9062 154.694C20.6526 114.866 20 71.7814 20 25.1533L21.8682 24.9365L23.7373 24.7178C23.7373 120.826 26.5141 201.789 31.5996 270.145C30.8278 237.909 30.4287 203.649 30.4287 167.227L31.9062 167.053C30.6526 127.225 30 84.1403 30 37.5127L31.8691 37.2949L33.7373 37.0762C33.7373 327.888 59.1539 480.042 97.0645 563.78C102.391 575.545 107.965 585.958 113.748 595.215C119.574 600.686 125.526 605.461 131.58 609.688C155.182 626.164 180.368 634.365 205.818 643.018C231.218 651.653 256.849 660.73 280.896 679.023C292.888 688.147 304.466 699.546 315.437 714.292C318.822 718.133 322.159 722.244 325.441 726.656C328.823 730.494 332.157 734.6 335.436 739.007C350.226 755.787 364.077 777.737 376.554 807.25C414.84 897.816 440.237 1059.74 440.237 1362.58L438.92 1362.73C440.068 1402.77 440.666 1445.88 440.666 1492.29L438.798 1492.51L436.929 1492.72C436.929 1391.12 434.066 1305.46 428.828 1233.1C429.756 1269.59 430.237 1308.57 430.237 1350.22L428.92 1350.37C430.068 1390.41 430.666 1433.52 430.666 1479.93L428.797 1480.15L426.93 1480.37C426.93 1378.75 424.065 1293.08 418.826 1220.72C419.754 1257.22 420.237 1296.21 420.237 1337.86L418.919 1338.01C420.067 1378.06 420.665 1421.16 420.665 1467.57L416.93 1468.01C416.93 1366.4 414.066 1280.74 408.828 1208.38C409.756 1244.88 410.237 1283.86 410.237 1325.5L408.92 1325.65C410.068 1365.7 410.666 1408.8 410.666 1455.21L408.798 1455.43L406.929 1455.65C406.929 1152.9 381.513 991.764 343.581 902.035C336.867 886.154 329.763 872.515 322.34 860.725C317.966 856.586 313.527 852.837 309.033 849.418C285.443 831.472 260.261 822.528 234.848 813.888C209.486 805.265 183.859 796.937 159.824 780.159C146.127 770.597 132.967 758.306 120.634 741.688C117.244 737.853 113.908 733.743 110.63 729.326C107.242 725.492 103.907 721.382 100.63 716.967C87.5738 702.192 75.3026 683.328 64.1328 658.656C25.8247 574.04 0.428725 421.046 0.428711 130.148L1.90625 129.977C0.652667 90.1485 3.98358e-06 47.0636 0 0.435547L1.86914 0.217773L3.7373 0ZM366.554 794.892C396.014 864.58 417.841 976.517 426.34 1162.4C430.328 1199.63 433.556 1241.07 435.932 1287.24C431.987 1032.79 407.788 891.329 373.152 809.398C370.832 803.91 368.465 798.688 366.055 793.719C366.221 794.108 366.388 794.499 366.554 794.892ZM412.959 1089.85C414.25 1109 415.38 1129.05 416.34 1150.04C420.328 1187.27 423.557 1228.72 425.933 1274.89C425.313 1234.94 424.194 1197.78 422.614 1163.2C419.769 1136.65 416.539 1112.27 412.959 1089.85ZM402.96 1077.5C404.251 1096.64 405.38 1116.69 406.34 1137.68C410.329 1174.92 413.558 1216.38 415.934 1262.56C415.314 1222.6 414.195 1185.42 412.614 1150.83C409.77 1124.29 406.539 1099.91 402.96 1077.5ZM346.982 899.887C375.521 967.396 396.896 1074.55 405.932 1250.17C405.312 1210.21 404.193 1173.05 402.613 1138.46C391.468 1034.48 374.413 963.67 353.582 914.394C351.259 908.899 348.889 903.673 346.476 898.698C346.644 899.093 346.814 899.489 346.982 899.887ZM356.554 782.533C380.403 838.949 399.249 923.051 410.072 1051.66C413.49 1069.05 416.662 1087.79 419.568 1108.02C409.555 954.94 389.337 858.978 363.153 797.04C360.832 791.549 358.463 786.326 356.052 781.354C356.219 781.746 356.387 782.139 356.554 782.533ZM397.773 1013.87C398.576 1022.15 399.343 1030.62 400.073 1039.3C403.491 1056.69 406.663 1075.44 409.569 1095.67C408.599 1080.83 407.532 1066.53 406.374 1052.74C403.657 1038.94 400.786 1026 397.773 1013.87ZM356.981 912.246C374.142 952.84 388.713 1007.77 399.568 1083.3C398.598 1068.46 397.531 1054.16 396.372 1040.37C387.087 993.192 376.006 956.142 363.582 926.753C361.261 921.262 358.892 916.039 356.48 911.067C356.648 911.459 356.815 911.852 356.981 912.246ZM346.554 770.174C367.165 818.931 384.041 888.369 395.229 989.341C398.079 999.244 400.82 1009.75 403.445 1020.89C392.347 910.247 374.786 835.851 353.153 784.68C350.831 779.185 348.46 773.96 346.047 768.985C346.215 769.38 346.386 769.776 346.554 770.174ZM366.982 924.604C376.703 947.598 385.589 975.191 393.443 1008.52C392.836 1002.46 392.21 996.513 391.563 990.67C385.962 971.25 379.949 954.174 373.581 939.111C371.261 933.623 368.894 928.402 366.483 923.433C366.65 923.822 366.817 924.212 366.982 924.604ZM49.8066 493.393C60.955 586.038 77.4835 649.295 97.4932 693.493C102.82 705.258 108.393 715.671 114.177 724.928C120.003 730.398 125.955 735.174 132.009 739.4C155.611 755.877 180.797 764.079 206.247 772.731C231.646 781.367 257.277 790.443 281.323 808.736C293.316 817.86 304.895 829.259 315.865 844.005C319.251 847.846 322.588 851.958 325.87 856.37C329.252 860.207 332.586 864.314 335.864 868.721C350.655 885.501 364.505 907.451 376.981 936.964C381.167 946.864 385.198 957.616 389.059 969.312C377.963 879.933 362.123 817.197 343.152 772.321C336.439 756.441 329.334 742.801 321.911 731.011C317.538 726.872 313.099 723.124 308.604 719.705C285.014 701.759 259.832 692.815 234.419 684.175C209.057 675.552 183.43 667.224 159.396 650.446C145.698 640.885 132.539 628.593 120.205 611.976C116.816 608.14 113.479 604.029 110.201 599.612C106.813 595.778 103.479 591.669 100.202 587.254C87.1459 572.479 74.874 553.615 63.7041 528.942C58.8563 518.234 54.2156 506.431 49.8066 493.393ZM154.827 771.157C157.204 773.023 159.598 774.796 162.009 776.479C185.611 792.955 210.797 801.155 236.247 809.808C257.992 817.2 279.907 824.917 300.852 838.463C300.246 837.989 299.64 837.52 299.033 837.059C275.443 819.113 250.261 810.169 224.848 801.529C201.237 793.502 177.398 785.729 154.827 771.157ZM144.834 758.803C147.209 760.667 149.6 762.437 152.009 764.118C175.611 780.594 200.797 788.797 226.247 797.449C247.992 804.842 269.906 812.558 290.851 826.104C290.246 825.63 289.639 825.162 289.032 824.7C265.443 806.755 240.261 797.81 214.849 789.17C191.24 781.144 167.403 773.371 144.834 758.803ZM134.83 746.442C137.206 748.307 139.599 750.078 142.009 751.76C165.611 768.236 190.797 776.437 216.247 785.09C237.99 792.482 259.903 800.199 280.847 813.743C280.243 813.27 279.639 812.803 279.033 812.342C255.443 794.396 230.261 785.451 204.848 776.812C181.238 768.785 157.4 761.012 134.83 746.442ZM154.399 641.444C156.776 643.31 159.171 645.082 161.581 646.765C185.183 663.241 210.368 671.442 235.818 680.095C257.563 687.487 279.478 695.204 300.423 708.75C299.818 708.276 299.212 707.808 298.604 707.346C275.015 689.4 249.832 680.455 224.419 671.815C200.809 663.789 176.97 656.015 154.399 641.444ZM144.405 629.09C146.78 630.954 149.173 632.724 151.581 634.405C175.183 650.881 200.369 659.083 225.819 667.735C247.564 675.128 269.478 682.845 290.423 696.392C289.818 695.918 289.212 695.449 288.604 694.987C265.015 677.042 239.833 668.097 214.42 659.457C190.812 651.431 166.974 643.658 144.405 629.09ZM35.8408 444.479C46.8319 557.386 64.9547 631.351 87.4932 681.135C88.6814 683.759 89.8824 686.316 91.0947 688.809C70.8633 641.301 54.4649 573.471 43.8418 474.495C41.0654 465.075 38.3957 455.084 35.8408 444.479ZM134.401 616.729C136.778 618.594 139.17 620.365 141.58 622.047C165.182 638.523 190.368 646.725 215.818 655.377C237.562 662.769 259.475 670.485 280.419 684.029C279.815 683.556 279.21 683.089 278.604 682.628C255.014 664.682 229.832 655.737 204.419 647.098C180.81 639.071 156.971 631.299 134.401 616.729ZM20.2939 362.291C30.0018 515.576 50.6059 609.383 77.4941 668.775C78.6826 671.4 79.8831 673.959 81.0957 676.451C57.8322 621.824 39.6364 540.328 29.4619 415.507C26.161 399.084 23.098 381.383 20.2939 362.291ZM4.61621 194.78C8.17478 443.669 32.5168 579.16 67.4932 656.417C68.6828 659.045 69.8849 661.605 71.0986 664.1C42.5611 597.093 21.6485 489.654 13.8145 311.412C9.99673 276.594 6.90112 237.878 4.61621 194.78ZM34.6162 231.849C35.1441 268.777 36.1302 303.209 37.54 335.324C48.6694 436.752 65.9236 504.724 87.0645 551.421C88.2528 554.046 89.4546 556.603 90.667 559.096C63.5151 495.337 43.2647 394.976 34.6162 231.849ZM40.293 386.992C41.1627 400.727 42.1198 413.984 43.1611 426.781C52.6693 474.015 64.1411 510.515 77.0654 539.062C78.2538 541.687 79.4545 544.245 80.667 546.737C64.3914 508.519 50.5964 457.149 40.293 386.992ZM45.8389 456.821C46.3781 462.361 46.9355 467.808 47.5088 473.162C53.5522 493.611 60.0968 511.313 67.0645 526.703C68.2541 529.331 69.4571 531.891 70.6709 534.386C61.5565 512.985 53.2201 487.46 45.8389 456.821ZM30.293 374.635C31.1629 388.372 32.1205 401.632 33.1621 414.433C35.7977 427.524 38.5853 439.791 41.5117 451.293C40.7954 443.652 40.1123 435.838 39.4609 427.847C36.1605 411.425 33.0967 393.725 30.293 374.635ZM24.6162 219.489C25.1442 256.423 26.1309 290.86 27.541 322.979C30.2795 347.934 33.3892 370.864 36.8359 391.949C35.6775 374.154 34.6678 355.555 33.8135 336.114C29.9961 301.298 26.901 262.584 24.6162 219.489ZM14.6162 207.113C15.1442 244.053 16.1306 278.495 17.541 310.62C20.2799 335.579 23.3885 358.512 26.8359 379.601C25.6772 361.801 24.668 343.198 23.8135 323.753C19.9957 288.933 16.901 250.214 14.6162 207.113Z" fill="#3E1A51"/>
</svg>
